<svg width="322" height="371" viewBox="0 0 322 371" fill="none" xmlns="http://www.w3.org/2000/svg">
<path d="M0 92.75L161 0V94L121.5 97.5C115.797 99.5711 112.749 101.024 107.5 104L101 142C107.111 167.963 107.689 178.01 107.5 194C113.599 215.036 121.378 228.92 138 255C146.207 266.164 151.181 270.902 161 275.5V371L0 278.25V92.75Z" fill="#50A852"/>
<path d="M161 232V237.5H155.5C152.832 236.123 151.686 235.165 150.5 233C148.85 231.471 150.154 229.013 152 227C153.906 230.509 155.196 231.691 158 232H161Z" fill="#50A852"/>
<path d="M125 154C115.967 155.502 113.545 158.993 112 168C116.898 171.796 120.649 172.697 128 173.5C139.331 171.583 143.26 169.437 145.5 163.5C140.944 156.075 136.874 153.545 125 154Z" fill="#50A852"/>
<path d="M161 0L322 92.75V278.25L161 371V275.5C170.819 270.902 176.293 266.164 184.5 255C201.122 228.92 208.901 215.036 215 194C214.811 178.01 215.389 167.963 221.5 142L215 104C209.751 101.024 206.703 99.5711 201 97.5L161 94V0Z" fill="#8FBB90"/>
<path d="M161 237.5V232H165C167.804 231.691 169.094 230.509 171 227C172.846 229.013 174.15 231.471 172.5 233C171.314 235.165 170.168 236.123 167.5 237.5H161Z" fill="#8FBB90"/>
<path d="M210.5 168C208.955 158.993 206.533 155.502 197.5 154C185.626 153.545 181.556 156.075 177 163.5C179.24 169.437 183.169 171.583 194.5 173.5C201.851 172.697 205.602 171.796 210.5 168Z" fill="#8FBB90"/>
</svg>
